<?xml version="1.0" encoding="UTF-8" standalone="no"?>
<svg width="150px" height="40px" viewBox="0 0 150 40" version="1.1" xmlns="http://www.w3.org/2000/svg" xmlns:xlink="http://www.w3.org/1999/xlink">
    <!-- Generator: Sketch 3.7 (28169) - http://www.bohemiancoding.com/sketch -->
    <title>Page 1</title>
    <desc>Created with Sketch.</desc>
    <defs>
        <polyline id="path-1" points="0 0.0195527157 149.242045 0.0195527157 149.242045 40 0 40"></polyline>
    </defs>
    <g id="2.0-copy" stroke="none" stroke-width="1" fill="none" fill-rule="evenodd">
        <g id="home---launch-2-copy-17" transform="translate(-73.000000, -39.000000)">
            <g id="Page-1" transform="translate(73.000000, 39.000000)">
                <path d="M7.06946965,24.9003834 C10.3251885,23.8991054 10.1148371,22.7984026 10.0802045,22.67623 L10.0511949,22.5742492 L9.94589137,22.5867732 C8.88416613,22.7130351 7.75918211,22.7394888 7.03815974,22.7394888 C4.56697764,22.7394888 2.68365495,22.3247923 2.30026837,22.2203834 L2.30026837,14.3523962 C2.55585942,14.3282428 3.36953355,14.2465815 5.0307476,13.9876677 C6.45541214,13.7656869 7.18141853,12.5635144 7.99739297,11.1715655 C8.45030032,10.3989137 8.97426198,9.52300319 9.67125879,8.72658147 C10.1746454,8.1513738 9.1708115,4.04964856 8.84582748,2.79226837 C12.2432716,3.7199361 15.0143898,5.34817891 15.0426326,5.36492013 L15.1290224,5.41514377 L15.1981597,5.34357827 C15.2269137,5.31341853 18.1815463,2.32159744 26.4739425,2.32159744 C30.333623,2.32159744 34.4003323,4.09041534 37.6307476,7.17463259 C40.9501086,10.3437061 42.8540064,14.4704792 42.8540064,18.4973163 C42.8540064,28.8630671 36.4941342,32.4366134 34.5449968,33.2849201 L34.4725367,33.3746326 L34.3494696,37.6996166 L29.180524,37.6996166 L29.0556677,34.1586581 L28.9233994,34.1431949 C27.5644217,34.2830032 26.1994377,34.2685623 25.2028882,34.2685623 C22.7176486,34.2685623 20.8821214,34.0971885 20.8639744,34.0955272 L20.732984,34.1380831 L20.6082556,37.6996166 L15.4427604,37.6996166 C15.4344537,34.5047284 15.1021853,33.2519489 15.0878722,33.2040256 L15.0699808,33.1146965 L15.0108115,33.0789137 C12.1958594,32.0675399 10.1297891,30.0932268 9.14883067,29.0107987 C7.65835144,27.3663259 6.89387859,25.8468371 6.90895847,25.1992971 C6.91470927,24.9516294 7.03125879,24.9121406 7.06946965,24.9003834" id="Fill-1" fill="#86F4EF"></path>
                <path d="M65.5806901,15.1020831 C64.8767923,15.1020831 64.3293163,15.3367157 63.938262,15.8320511 C63.5473355,16.3272588 63.3386454,16.9791438 63.3386454,17.7871949 L63.3386454,21.2545431 C63.3386454,22.9229137 64.1989649,23.939655 65.5806901,23.939655 C66.9624153,23.939655 67.7966645,22.9229137 67.7966645,21.2545431 L67.7966645,17.7871949 C67.7966645,16.9791438 67.6140447,16.3272588 67.2231182,15.8320511 C66.8320639,15.3367157 66.2845879,15.1020831 65.5806901,15.1020831 M69.4912332,13.9810607 C70.3253546,14.9194633 70.7424792,16.1447668 70.7424792,17.6829137 L70.7424792,21.3586965 C70.7424792,22.8968435 70.3253546,24.122147 69.4912332,25.0606773 C68.6307859,25.9992077 67.5620319,26.468345 66.2324473,26.468345 C64.850722,26.468345 63.8861214,26.025278 63.3386454,25.1387604 L63.3386454,31.8126262 C63.3386454,32.3340319 63.0780703,32.5947348 62.5566645,32.5947348 L61.2010096,32.5947348 C60.6796038,32.5947348 60.418901,32.3340319 60.418901,31.8126262 L60.418901,13.6160767 C60.418901,13.0946709 60.6796038,12.8339681 61.2010096,12.8339681 L62.400115,12.8339681 C62.9215208,12.8339681 63.1822236,13.0946709 63.1822236,13.6160767 L63.1822236,14.1635527 C63.6775591,13.1207412 64.6943003,12.5993355 66.2324473,12.5993355 C67.5620319,12.5993355 68.6307859,13.0686006 69.4912332,13.9810607" id="Fill-3" fill="#08355A"></path>
                <path d="M76.4755144,25.4255719 C76.4755144,25.9469776 76.2148115,26.2076805 75.6935335,26.2076805 L74.3377508,26.2076805 C73.816345,26.2076805 73.55577,25.9469776 73.55577,25.4255719 L73.55577,13.616115 C73.55577,13.0947093 73.816345,12.8340064 74.3377508,12.8340064 L75.6935335,12.8340064 C76.2148115,12.8340064 76.4755144,13.0947093 76.4755144,13.616115 L76.4755144,25.4255719 Z M76.7362173,8.29790415 C76.7362173,9.23630671 75.9541086,9.99234505 75.0155783,9.99234505 C74.0509776,9.99234505 73.3210096,9.262377 73.3210096,8.29790415 C73.3210096,7.3593738 74.103246,6.57726518 75.0155783,6.57726518 C75.9541086,6.57726518 76.7362173,7.3593738 76.7362173,8.29790415 L76.7362173,8.29790415 Z" id="Fill-5" fill="#08355A"></path>
                <path d="M85.9882939,17.1354633 C85.9882939,15.8060064 85.3104665,15.0238978 84.0330224,15.0238978 C82.7557061,15.0238978 82.0778786,15.8060064 82.0778786,17.1354633 L82.0778786,17.9697125 C82.0778786,19.2992971 82.7557061,20.0814058 84.0330224,20.0814058 C85.3104665,20.0814058 85.9882939,19.2992971 85.9882939,17.9697125 L85.9882939,17.1354633 Z M83.6420958,26.5467093 C82.6253546,26.6247923 81.9214569,27.1983387 81.9214569,28.2150799 L81.9214569,28.7102875 C81.9214569,29.753099 82.8337891,30.4048562 84.1895719,30.4048562 C85.5190288,30.4048562 86.4314888,29.753099 86.4314888,28.7102875 L86.4314888,28.1890096 C86.4314888,27.1461981 85.545099,26.5467093 84.3197955,26.5467093 L83.6420958,26.5467093 Z M89.7944281,14.5023642 C89.7944281,15.0238978 89.5337252,15.2846006 89.0124473,15.2846006 L88.4128307,15.2846006 C88.7517444,15.8840895 88.9081661,16.4837061 88.9081661,17.0313099 L88.9081661,18.0739936 C88.9081661,20.7591054 87.0311054,22.5058147 84.1374313,22.5058147 C83.5376869,22.5058147 83.0164089,22.4536741 82.5471438,22.3233227 C82.4167923,22.5579553 82.3385815,22.8447284 82.3385815,23.1315016 C82.3385815,23.8353994 82.8860575,24.1743131 83.9810096,24.1743131 L84.7109776,24.1743131 C87.3960895,24.1743131 89.3512332,25.5821086 89.3512332,28.0063898 L89.3512332,28.8407668 C89.3512332,31.3174441 87.3178786,32.829393 84.1895719,32.829393 C81.0350671,32.829393 79.0017125,31.3174441 79.0017125,28.8407668 L79.0017125,28.2410224 C79.0017125,27.0679872 79.4969201,26.1033866 80.5136613,25.3994888 C79.9402428,24.8260703 79.6534696,24.1482428 79.6534696,23.3922045 C79.6534696,22.531885 79.9141725,21.8019169 80.409508,21.17623 C79.575131,20.3941214 79.1581342,19.3514377 79.1581342,18.0739936 L79.1581342,17.0313099 C79.1581342,14.3460703 81.1134058,12.599361 83.9549393,12.599361 C84.5022875,12.599361 84.997623,12.6775719 85.4409457,12.8339936 L89.0124473,12.8339936 C89.5337252,12.8339936 89.7944281,13.0946965 89.7944281,13.6161022 L89.7944281,14.5023642 Z" id="Fill-7" fill="#08355A"></path>
                <path d="M98.1839105,17.1354633 C98.1839105,15.8060064 97.5060831,15.0238978 96.228639,15.0238978 C94.9513227,15.0238978 94.2734952,15.8060064 94.2734952,17.1354633 L94.2734952,17.9697125 C94.2734952,19.2992971 94.9513227,20.0814058 96.228639,20.0814058 C97.5060831,20.0814058 98.1839105,19.2992971 98.1839105,17.9697125 L98.1839105,17.1354633 Z M95.8377125,26.5467093 C94.8209712,26.6247923 94.1170735,27.1983387 94.1170735,28.2150799 L94.1170735,28.7102875 C94.1170735,29.753099 95.0294058,30.4048562 96.3851885,30.4048562 C97.7146454,30.4048562 98.6271054,29.753099 98.6271054,28.7102875 L98.6271054,28.1890096 C98.6271054,27.1461981 97.7407157,26.5467093 96.5154121,26.5467093 L95.8377125,26.5467093 Z M101.990045,14.5023642 C101.990045,15.0238978 101.729342,15.2846006 101.208064,15.2846006 L100.608447,15.2846006 C100.947361,15.8840895 101.103783,16.4837061 101.103783,17.0313099 L101.103783,18.0739936 C101.103783,20.7591054 99.226722,22.5058147 96.3330479,22.5058147 C95.7333035,22.5058147 95.2120256,22.4536741 94.7427604,22.3233227 C94.6124089,22.5579553 94.5341981,22.8447284 94.5341981,23.1315016 C94.5341981,23.8353994 95.0816741,24.1743131 96.1766262,24.1743131 L96.9065942,24.1743131 C99.5917061,24.1743131 101.54685,25.5821086 101.54685,28.0063898 L101.54685,28.8407668 C101.54685,31.3174441 99.5134952,32.829393 96.3851885,32.829393 C93.2306837,32.829393 91.1973291,31.3174441 91.1973291,28.8407668 L91.1973291,28.2410224 C91.1973291,27.0679872 91.6925367,26.1033866 92.709278,25.3994888 C92.1358594,24.8260703 91.8490863,24.1482428 91.8490863,23.3922045 C91.8490863,22.531885 92.1097891,21.8019169 92.6051246,21.17623 C91.7707476,20.3941214 91.3537508,19.3514377 91.3537508,18.0739936 L91.3537508,17.0313099 C91.3537508,14.3460703 93.3090224,12.599361 96.1505559,12.599361 C96.6979042,12.599361 97.1932396,12.6775719 97.6365623,12.8339936 L101.208064,12.8339936 C101.729342,12.8339936 101.990045,13.0946965 101.990045,13.6161022 L101.990045,14.5023642 Z" id="Fill-9" fill="#08355A"></path>
                <path d="M113.768601,27.6154377 C113.768601,30.8220831 111.995821,32.8293674 108.893585,32.8293674 C106.077994,32.8293674 104.435693,31.2913482 104.09678,28.8146709 C104.044639,28.2671949 104.305342,28.006492 104.85269,28.006492 L106.077994,28.006492 C106.521188,28.006492 106.781891,28.2411246 106.8863,28.7363323 C107.120805,29.8053419 107.798633,30.3528179 108.893585,30.3528179 C110.197099,30.3528179 110.848728,29.5707093 110.848728,28.006492 L110.848728,25.1648307 C110.431732,25.8687284 109.38892,26.468345 108.007195,26.468345 C105.504575,26.468345 103.966428,24.7216358 103.966428,21.7759489 L103.966428,13.6160767 C103.966428,13.0946709 104.227131,12.8339681 104.748537,12.8339681 L106.104064,12.8339681 C106.62547,12.8339681 106.8863,13.0946709 106.8863,13.6160767 L106.8863,21.2022748 C106.8863,22.8186326 107.53793,23.6268115 108.815374,23.6268115 C110.040677,23.6268115 110.848728,22.6361406 110.848728,21.1762045 L110.848728,13.6160767 C110.848728,13.0946709 111.109431,12.8339681 111.630837,12.8339681 L112.986492,12.8339681 C113.507898,12.8339681 113.768601,13.0946709 113.768601,13.6160767 L113.768601,27.6154377 Z" id="Fill-11" fill="#08355A"></path>
                <path d="M122.186633,15.1020831 C121.482607,15.1020831 120.935259,15.3367157 120.544077,15.8320511 C120.15315,16.3272588 119.944588,16.9791438 119.944588,17.7871949 L119.944588,21.2545431 C119.944588,22.9229137 120.80478,23.939655 122.186633,23.939655 C123.568358,23.939655 124.402479,22.9229137 124.402479,21.2545431 L124.402479,17.7871949 C124.402479,16.9791438 124.219987,16.3272588 123.829061,15.8320511 C123.437879,15.3367157 122.89053,15.1020831 122.186633,15.1020831 M126.097048,13.9810607 C126.931297,14.9194633 127.348422,16.1447668 127.348422,17.6829137 L127.348422,21.3586965 C127.348422,22.8968435 126.931297,24.122147 126.097048,25.0606773 C125.236728,25.9992077 124.167847,26.468345 122.83839,26.468345 C121.456665,26.468345 120.492064,26.025278 119.944588,25.1387604 L119.944588,31.8126262 C119.944588,32.3340319 119.683885,32.5947348 119.162479,32.5947348 L117.806952,32.5947348 C117.285419,32.5947348 117.024716,32.3340319 117.024716,31.8126262 L117.024716,13.6160767 C117.024716,13.0946709 117.285419,12.8339681 117.806952,12.8339681 L119.006058,12.8339681 C119.527463,12.8339681 119.788166,13.0946709 119.788166,13.6160767 L119.788166,14.1635527 C120.283502,13.1207412 121.300115,12.5993355 122.83839,12.5993355 C124.167847,12.5993355 125.236728,13.0686006 126.097048,13.9810607" id="Fill-13" fill="#08355A"></path>
                <path d="M135.062645,15.1280511 C134.358748,15.1280511 133.811272,15.3626837 133.420217,15.8580192 C133.029291,16.3533546 132.820728,17.0051118 132.820728,17.8132907 L132.820728,21.2544409 C132.820728,22.9229393 133.68092,23.9396805 135.062645,23.9396805 C136.444371,23.9396805 137.27862,22.9229393 137.27862,21.2544409 L137.27862,17.8132907 C137.27862,17.0051118 137.096128,16.3533546 136.705073,15.8580192 C136.314019,15.3626837 135.766543,15.1280511 135.062645,15.1280511 M135.036575,12.599361 C136.600792,12.599361 137.852038,13.0686262 138.790696,13.9809585 C139.729227,14.8934185 140.198492,16.1447923 140.198492,17.6829393 L140.198492,21.358722 C140.198492,24.4609585 138.164882,26.4683706 135.036575,26.4683706 C131.908268,26.4683706 129.874786,24.4609585 129.874786,21.358722 L129.874786,17.6829393 C129.874786,16.1447923 130.344051,14.8934185 131.282581,13.9809585 C132.221112,13.0686262 133.472486,12.599361 135.036575,12.599361" id="Fill-15" fill="#08355A"></path>
                <path d="M146.661086,15.2845495 L146.635144,21.8018658 C146.635144,23.2618019 147,23.809278 148.016741,23.809278 C148.173163,23.809278 148.303642,23.809278 148.381725,23.7832077 C148.929201,23.7310671 149.215974,23.9397572 149.215974,24.4349649 L149.215974,25.4256358 C149.215974,25.9208435 149.007412,26.2077444 148.564217,26.3120256 C148.173163,26.3901086 147.729968,26.442377 147.234633,26.442377 C144.966645,26.442377 143.689201,25.2170735 143.715272,22.6883834 L143.741342,15.2845495 L142.620319,15.2845495 C142.099042,15.2845495 141.838339,15.0238466 141.838339,14.5024409 L141.838339,13.6160511 C141.838339,13.0946454 142.099042,12.8339425 142.620319,12.8339425 L143.741342,12.8339425 L143.767412,9.07994888 C143.767412,8.55854313 144.028115,8.29784026 144.549521,8.29784026 L145.931246,8.29784026 C146.452524,8.29784026 146.713227,8.55854313 146.713227,9.07994888 L146.687157,12.8339425 L148.459936,12.8339425 C148.981342,12.8339425 149.242045,13.0946454 149.242045,13.6160511 L149.242045,14.5024409 C149.242045,15.0238466 148.981342,15.2845495 148.459936,15.2845495 L146.661086,15.2845495 Z" id="Fill-17" fill="#08355A"></path>
                <path d="M29.857853,9.07573163 C30.3899936,9.07573163 30.8744665,8.78333546 31.1221342,8.31266454 C31.2998978,7.97541214 31.3355527,7.58895847 31.2224537,7.22474121 C31.1093546,6.86026837 30.8613035,6.56186581 30.5237955,6.38435783 C25.6248818,3.80569968 21.4423898,6.19228115 21.2667987,6.29502875 C20.9377252,6.488 20.7037316,6.79739297 20.6075016,7.16633866 C20.5111438,7.53502875 20.5643067,7.9195655 20.7571502,8.24876677 C20.9502492,8.57784026 21.2596422,8.81196166 21.6283323,8.9080639 C21.9971502,9.00454952 22.3814313,8.95189776 22.709738,8.75892652 C22.7393866,8.74205751 25.6975974,7.07113099 29.1939553,8.91100319 C29.3983003,9.01886262 29.6279489,9.07573163 29.857853,9.07573163" id="Fill-19" fill="#08355A"></path>
                <g id="Group-23">
                    <mask id="mask-2" fill="white">
                        <use xlink:href="#path-1"></use>
                    </mask>
                    <g id="Clip-22"></g>
                    <path d="M25.4019808,33.8062875 L25.133738,33.8060319 C22.6927157,33.8060319 20.935655,33.6388754 20.9187859,33.6372141 L20.8973163,33.6351693 L20.6883706,33.7261597 L20.568115,37.188524 L15.7269649,37.188524 C15.712524,33.9936358 15.3825559,32.8733802 15.38,32.8659681 L15.3546965,32.7279489 L15.2588498,32.6640511 L15.2433866,32.654722 C12.5314377,31.67977 10.5277316,29.7680767 9.57476038,28.7160639 C8.14063898,27.1325495 7.40466454,25.6824537 7.41897764,25.0689073 C7.42166134,24.9521022 7.4514377,24.8838594 7.50766773,24.8664792 C10.7649201,23.8641789 10.5392332,22.7100575 10.5028115,22.5817508 L10.4522045,22.4037316 L10.2684345,22.4257125 C9.23968051,22.5481406 8.16198083,22.5738275 7.45246006,22.5738275 C5.07047923,22.5738275 3.32261981,22.1832843 2.93923323,22.0892268 L2.93923323,14.5863514 C3.32261981,14.5515911 4.08364217,14.4614952 5.51277955,14.2386198 C6.95674121,14.0134441 7.69450479,12.7678211 8.46728435,11.4488435 C8.87929712,10.7455847 9.39597444,9.8703131 10.0854313,9.0816869 C10.5645367,8.53395527 9.83405751,5.29574441 9.34332268,3.37421086 C12.5428115,4.27478594 15.1677316,5.81114377 15.1936741,5.82660703 L15.3430671,5.91363578 L15.4626837,5.78941853 C15.4905431,5.76028115 18.3458786,2.87504153 26.3713099,2.87504153 C30.1048562,2.87504153 34.0398083,4.58839617 37.1672204,7.576 C40.3801278,10.645393 42.2228115,14.6404089 42.2228115,18.5368946 C42.2228115,28.5770224 36.0750799,32.0342748 34.1911182,32.854722 L34.1682428,32.8644345 L34.0635783,33.0167668 L33.945623,37.188524 L29.0988498,37.188524 L28.9785942,33.7569585 L28.9775719,33.7220703 L28.7613419,33.6888435 L28.7463898,33.6875655 C27.5346326,33.8124217 26.3521406,33.8084601 25.4019808,33.8062875 M49.8828754,2.7959361 C48.4482428,1.0732524 46.0755911,0.709546326 45.1504792,0.80398722 C43.4927157,0.973316294 41.5481789,2.37919489 41.2957827,4.20219808 C40.9872843,6.42992971 43.156869,7.54277316 44.1039617,7.91798083 C44.4582109,8.05817252 44.8460703,8.05203834 45.19623,7.90021725 C45.5465176,7.74877955 45.8165495,7.4703131 45.956869,7.1160639 C46.0971885,6.76143131 46.0911821,6.37331629 45.9396166,6.02341214 C45.7881789,5.6732524 45.5095847,5.40334824 45.1548243,5.26315655 C44.3389776,4.94008946 44.1314377,4.63504153 44.1241534,4.59363578 C44.1661981,4.29012141 44.832524,3.70660703 45.4404473,3.6446262 C45.6708626,3.61868371 47.0004473,3.79708626 47.688754,4.62366773 C48.1534185,5.18098403 48.2290735,5.96679872 47.9201917,7.02609585 C47.4341853,8.69331629 46.0968051,9.21548882 45.0605112,9.35989776 C43.688115,9.55082428 42.3323323,9.12322045 41.8178275,8.60385942 C41.0484984,7.50251757 40.1483067,6.45740575 39.1421725,5.49791693 C35.4904153,2.01638339 30.8378914,0.0195782748 26.3771885,0.0195782748 C22.6027476,0.0195782748 19.3536741,0.593252396 16.7201917,1.72475399 C16.1448562,1.97191054 15.6021086,2.24654313 15.1066454,2.54123962 C13.8638339,1.93203834 11.9296486,1.08884345 9.74498403,0.514913738 C9.5258147,0.457405751 9.30025559,0.428140575 9.07456869,0.428140575 C8.3771885,0.428140575 7.69527157,0.711846645 7.20351438,1.20654313 C6.54255591,1.87133546 6.28313099,2.84667093 6.52670927,3.75184665 C6.92939297,5.25165495 7.30651757,7.00155911 7.42549521,7.92207029 C6.85808307,8.68309265 6.42089457,9.44654313 6.0686901,10.0617508 C5.86536741,10.4167668 5.39226837,11.2427093 5.18728435,11.4241789 C4.14178914,11.5867348 3.27099042,11.7040511 2.73680511,11.7547859 L2.68837061,11.7564473 C2.30907348,11.7791949 1.94971246,11.8809201 1.62485623,12.0407923 C0.681214058,12.4718466 -6.38977654e-05,13.3917188 -6.38977654e-05,14.3873738 L-6.38977654e-05,14.3873738 L-6.38977654e-05,22.2574058 L-6.38977654e-05,22.2575335 C6.38977618e-05,23.1491629 0.617060703,24.038492 1.50485623,24.5164473 C1.70345048,24.6300575 1.9171246,24.7225815 2.1429393,24.7887796 C2.1513738,24.7913355 3.05348243,25.0442428 4.49284345,25.2287796 C4.49399361,25.2493546 4.49642173,25.2700575 4.49795527,25.2906326 C4.50051118,25.325393 4.5029393,25.3600256 4.50651757,25.3947859 C4.50920128,25.4207284 4.51265176,25.4467987 4.51584665,25.472869 C4.52019169,25.5073738 4.52440895,25.5418786 4.52964856,25.5765112 C4.53348243,25.6023259 4.53795527,25.6281406 4.54230032,25.6539553 C4.54817891,25.6889712 4.5543131,25.724115 4.56108626,25.7593866 C4.56619808,25.7852013 4.57169329,25.8111438 4.5771885,25.8369585 C4.58460064,25.8719744 4.59226837,25.9068626 4.60057508,25.9418786 C4.60696486,25.9689712 4.61373802,25.9960639 4.62063898,26.0231565 C4.62907348,26.0561278 4.63776358,26.089099 4.64683706,26.1221981 C4.65514377,26.1523578 4.66383387,26.1826454 4.67277955,26.2129329 C4.68121406,26.2411757 4.68977636,26.2695463 4.69859425,26.2977891 C4.70996805,26.3344665 4.72185304,26.371016 4.73399361,26.4075655 C4.74051118,26.4268626 4.74702875,26.4461597 4.75380192,26.4654569 C4.77015974,26.5127412 4.78702875,26.5600256 4.80453674,26.6071821 C4.80645367,26.6120383 4.80824281,26.6168946 4.81003195,26.6217508 C5.38907348,28.1664153 6.61961661,29.6809201 7.42536741,30.565393 C8.95955272,32.249738 10.8047923,33.6473099 12.7628754,34.6078211 C12.808754,35.1455847 12.8625559,36.0230288 12.8625559,37.1775335 C12.8625559,37.571655 12.9494569,37.9491629 13.1031949,38.2913994 C13.5127796,39.2744026 14.4634505,40.0000256 15.510607,40.0000256 L20.7773163,40.0000256 L20.7774441,40.0000256 C20.8582109,40.0000256 20.9383387,39.9952971 21.0174441,39.986607 C21.0286901,39.9854569 21.0399361,39.9837955 21.0511821,39.9823898 C21.1093291,39.9752332 21.1669649,39.965393 21.2239617,39.9536358 C21.2748243,39.9436677 21.3249201,39.9311438 21.3748882,39.9177252 C21.3837061,39.9152971 21.3926518,39.912869 21.4015974,39.9103131 C22.1622364,39.6975335 22.8114377,39.1140192 23.1444728,38.3611757 C23.3029393,38.0289073 23.4000639,37.6611118 23.4141214,37.2727412 L23.4341853,36.7228371 C23.5971246,36.7307604 23.7646645,36.7432843 23.940639,36.7568307 C24.2496486,36.7804728 24.5691374,36.8051374 24.9019169,36.8051374 L24.9019169,36.8051374 L25.133738,36.8051374 L25.1338658,36.8051374 L25.1339936,36.8051374 C25.339361,36.8051374 25.544345,36.7708882 25.7424281,36.7379169 C25.9121406,36.7096741 26.072524,36.683476 26.2322684,36.6765751 L26.2527157,37.2898658 C26.2635783,37.5839233 26.3235144,37.8657125 26.420639,38.129738 C26.7724601,39.2105048 27.7589137,40.0000256 28.8895208,40.0000256 L28.8896486,40.0000256 L34.1563578,40.0000256 L34.1564856,40.0000256 L34.1564856,40.0000256 C34.2377636,40.0000256 34.3182748,39.9952971 34.3977636,39.986607 C34.4095208,39.9853291 34.4210224,39.9836677 34.4326518,39.982262 C34.4909265,39.9749776 34.5485623,39.9651374 34.6056869,39.9533802 C34.6569329,39.9432843 34.7074121,39.9306326 34.7578914,39.9170863 C34.7665815,39.9146581 34.7753994,39.9123578 34.7840895,39.9098019 C35.5122684,39.7059681 36.1338658,39.1627093 36.4769968,38.4568946 C36.666262,38.0956166 36.7810224,37.6879489 36.7938019,37.2549776 L36.8689457,34.6535719 C38.2555272,33.8415591 40.2591054,32.341623 41.9609585,29.7959361 C44.031246,26.6993227 45.0810863,22.9063514 45.0810863,18.5225815 C45.0810863,16.4032204 44.6541214,14.2920383 43.8123323,12.2470543 C44.3585304,12.284115 44.9100958,12.2646901 45.4528435,12.1890351 C48.0601278,11.8253291 49.958147,10.2350415 50.660639,7.82571246 C51.3915016,5.31836422 50.6410863,3.70660703 49.8828754,2.7959361" id="Fill-21" fill="#08355A" mask="url(#mask-2)"></path>
                </g>
                <path d="M15.877099,13.7772013 C14.060869,12.269853 12.0787604,13.1181597 11.2842556,13.7772013 C10.6699425,14.2872332 10.5849585,15.2021214 11.0947348,15.8168179 C11.6048946,16.4312588 12.5199105,16.516115 13.1347348,16.0058275 C13.2391438,15.9187987 13.6123067,15.6612907 14.0270032,16.0062109 C14.2863003,16.2215463 14.614607,16.3401406 14.9516038,16.3401406 C15.3841917,16.3401406 15.7905815,16.1493419 16.0666198,15.8166901 C16.576524,15.2022492 16.4915399,14.287361 15.877099,13.7772013" id="Fill-24" fill="#08355A"></path>
            </g>
        </g>
    </g>
</svg>